<?xml version="1.0" standalone="no"?>
<!DOCTYPE svg PUBLIC "-//W3C//DTD SVG 20010904//EN"
 "http://www.w3.org/TR/2001/REC-SVG-20010904/DTD/svg10.dtd">
<svg version="1.0" xmlns="http://www.w3.org/2000/svg"
 width="952.000000pt" height="952.000000pt" viewBox="0 0 952.000000 952.000000"
 preserveAspectRatio="xMidYMid meet">
<metadata>
Created by potrace 1.11, written by Peter Selinger 2001-2013
</metadata>
<g transform="translate(0.000000,952.000000) scale(0.100000,-0.100000)"
fill="#000000" stroke="none">
<path d="M3360 8400 l0 -760 3080 0 3080 0 0 760 0 760 -3080 0 -3080 0 0
-760z"/>
<path d="M3360 4760 l0 -1280 3080 0 3080 0 0 1280 0 1280 -3080 0 -3080 0 0
-1280z"/>
<path d="M0 1800 l0 -1440 1680 0 1680 0 0 1440 0 1440 -1680 0 -1680 0 0
-1440z"/>
</g>
</svg>
