<svg viewBox="0 0 500 500" xmlns="http://www.w3.org/2000/svg" fill-rule="evenodd" clip-rule="evenodd" stroke-linejoin="round" stroke-miterlimit="1.414">
  <circle cx="250" cy="250" r="250"  fill="currentColor"/>
  <g fill="#fff" fill-rule="nonzero">
    <path d="M169.164 219.262c2.525 1.782 10.137 7.07 22.836 15.87 12.708 8.808 22.436 15.586 29.193 20.335.742.52 2.325 1.654 4.735 3.398 2.417 1.75 4.42 3.157 6.017 4.232 1.595 1.082 3.525 2.284 5.795 3.626 2.263 1.337 4.4 2.34 6.404 3.005 2.01.67 3.866 1.002 5.576 1.002h.22c1.71 0 3.566-.333 5.576-1.002 2.002-.666 4.14-1.675 6.404-3.005 2.263-1.342 4.193-2.544 5.795-3.626 1.596-1.075 3.6-2.483 6.01-4.232 2.417-1.744 4-2.88 4.74-3.398 6.83-4.756 24.212-16.82 52.144-36.212 5.42-3.787 9.95-8.354 13.58-13.703 3.64-5.35 5.463-10.95 5.463-16.82 0-4.9-1.77-9.1-5.297-12.594-3.525-3.492-7.706-5.234-12.533-5.234h-164c-5.724 0-10.124 1.93-13.21 5.795-3.08 3.86-4.62 8.68-4.62 14.48 0 4.68 2.04 9.75 6.13 15.21 4.08 5.453 8.427 9.75 13.034 12.865z"/>
    <path d="M338.515 231.18c-24.36 16.487-42.855 29.3-55.483 38.435-4.232 3.125-7.67 5.556-10.31 7.298-2.63 1.75-6.143 3.533-10.522 5.35-4.388 1.822-8.467 2.73-12.26 2.73h-.22c-3.794 0-7.88-.908-12.26-2.73-4.38-1.817-7.892-3.6-10.53-5.35-2.63-1.742-6.07-4.173-10.303-7.298-10.03-7.352-28.487-20.165-55.376-38.434-4.23-2.82-7.98-6.05-11.25-9.69v88.46c0 4.91 1.75 9.1 5.24 12.596 3.49 3.493 7.69 5.235 12.596 5.235h164c4.903 0 9.103-1.742 12.595-5.234 3.49-3.49 5.236-7.684 5.236-12.592v-88.46c-3.197 3.566-6.91 6.797-11.144 9.696z"/>
  </g>
</svg>
