<svg width="500" height="500" viewBox="0 0 500 500" xmlns="http://www.w3.org/2000/svg">
  <g fill="none" fill-rule="evenodd">
    <circle cx="250" cy="250" r="250" fill="currentColor"/>
    <g fill="#fff">
      <path d="M344.463 341c5.17 0 9.65-1.7 13.458-5.06l-65.16-64.927c-1.56 1.115-3.08 2.2-4.51 3.23-4.87 3.58-8.83 6.374-11.87 8.377-3.04 2.005-7.08 4.05-12.13 6.138-5.05 2.09-9.75 3.132-14.12 3.132h-.25c-4.362 0-9.07-1.04-14.12-3.132-5.05-2.088-9.09-4.133-12.125-6.14-3.04-2-6.995-4.794-11.874-8.374-1.36-.993-2.867-2.083-4.497-3.25l-65.18 64.946c3.81 3.36 8.29 5.06 13.46 5.06H344.47zM147.965 230.128c-4.877-3.24-9.2-6.95-12.965-11.128v98.783l57.434-57.225c-11.49-7.992-26.294-18.124-44.47-30.43zm204.2 0c-17.482 11.79-32.34 21.94-44.576 30.453L365 317.79V219c-3.68 4.095-7.96 7.802-12.835 11.127z"/>
      <path d="M344.466 160H155.534c-6.59 0-11.658 2.226-15.208 6.673-3.552 4.448-5.326 10.012-5.326 16.684 0 5.39 2.354 11.23 7.06 17.52 4.703 6.29 9.71 11.23 15.015 14.823 2.91 2.055 11.68 8.153 26.313 18.29 7.9 5.475 14.77 10.246 20.673 14.363 5.04 3.506 9.38 6.542 12.96 9.062.41.29 1.06.75 1.92 1.365l3.54 2.55c2.78 2.01 5.09 3.637 6.93 4.88 1.838 1.24 4.064 2.63 6.676 4.17 2.61 1.538 5.07 2.695 7.38 3.465 2.31.77 4.45 1.155 6.42 1.155h.254c1.966 0 4.106-.384 6.417-1.153 2.31-.768 4.77-1.925 7.38-3.465 2.61-1.54 4.834-2.932 6.677-4.17 1.84-1.24 4.15-2.867 6.933-4.878 1.44-1.043 2.61-1.886 3.536-2.548.857-.616 1.504-1.076 1.918-1.367 2.79-1.95 7.14-4.97 12.99-9.03 10.64-7.4 26.31-18.28 47.08-32.69 6.248-4.37 11.466-9.63 15.66-15.79 4.17-6.15 6.27-12.61 6.27-19.37 0-5.648-2.034-10.48-6.096-14.506-4.065-4.02-8.88-6.03-14.44-6.03l.003-.005z"/>
    </g>
  </g>
</svg>
