<svg xmlns="http://www.w3.org/2000/svg" viewBox="0 0 105.104 105.104">
  <path d="M64.785 15.134c-.22 0-.41-.127-.422-.283s-.003-.46.02-.68c0 0 .22-2.05 1.305-3.36.978-1.15 1.52-2 1.52-2.97 0-1.11-.694-1.85-2.062-1.87-.782 0-1.65.26-2.195.68l-.37-.99c-.08-.2.02-.44.23-.53 0 0 1.59-.703 2.74-.703 2.5 0 3.63 1.545 3.63 3.195 0 1.48-.82 2.546-1.87 3.78-.95 1.13-1.3 2.09-1.24 3.198l.01.167c.01.22-.16.4-.38.4h-.9z" fill="currentColor"/>
  <path d="M65.68 15.534h-.895c-.432 0-.792-.286-.82-.65-.015-.184-.005-.515.02-.755.01-.09.246-2.2 1.396-3.58.91-1.07 1.43-1.85 1.43-2.72 0-1.2-.91-1.46-1.67-1.47-.69 0-1.48.24-1.94.59l-.42.32-.57-1.5c-.15-.4.05-.87.44-1.05.07-.03 1.68-.74 2.91-.74 2.785 0 4.03 1.8 4.03 3.59 0 1.58-.85 2.72-1.96 4.04-.863 1.02-1.205 1.89-1.145 2.91l.007.17c.005.213-.07.42-.22.572-.15.15-.35.24-.57.24zm-.922-.815l.907.01-.006-.15c-.08-1.24.32-2.28 1.33-3.47 1.04-1.23 1.77-2.21 1.77-3.52 0-1.35-.85-2.8-3.23-2.8-1.05 0-2.57.66-2.58.67l.2.56c.57-.3 1.3-.48 1.98-.48 1.52.024 2.46.893 2.46 2.27 0 1.114-.6 2.03-1.62 3.234-1 1.192-1.21 3.124-1.21 3.144-.02.16-.03.36-.03.51zm-.85 3.45c0-.81.542-1.37 1.303-1.37.76 0 1.29.56 1.29 1.37 0 .76-.5 1.35-1.3 1.35-.76 0-1.28-.59-1.28-1.35z" fill="currentColor"/>
  <path d="M65.188 19.922c-.958 0-1.68-.75-1.68-1.748 0-1.024.716-1.768 1.703-1.768.98 0 1.69.744 1.69 1.768 0 1.014-.71 1.748-1.7 1.748zm.023-2.715c-.54 0-.9.39-.9.968 0 .558.36.948.88.948.55 0 .91-.372.91-.948 0-.588-.34-.968-.88-.968zm-33 32.75l14.59-3.76c1.42-.366 2.8-1.71 3.19-3.124l3.66-13.113c.23-.798.1-1.615-.35-2.243-.443-.63-1.18-1.016-2.01-1.063l-1.56-.083c-1.51 0-2.98 1.08-3.412 2.51l-2.4 7.83c-.22.72-1.08 1.53-1.81 1.71l-10.83 2.1c-1.505.37-2.72 1.87-2.762 3.42 0 0-.134 4.74.33 5.22.448.46 1.066.95 3.386.62z" fill="currentColor"/>
  <path d="M41.908 34.77c.443 0 .878-.036 1.308-.088l1.83-5.982c.596-1.955 2.6-3.43 4.66-3.43l1.634.085c.444.025.86.14 1.256.292.09-.56.15-1.13.15-1.715 0-5.975-4.862-10.836-10.837-10.836s-10.84 4.86-10.84 10.836S35.93 34.77 41.9 34.77zM65.798 0c-5.974 0-10.834 5.366-10.834 11.96 0 2.965.987 5.676 2.61 7.768-.083.067-.165.14-.226.236l-2.228 3.5c-.296.465-.16 1.083.307 1.38.166.106.352.156.536.156.33 0 .654-.164.845-.463l2.122-3.334c1.87 1.697 4.263 2.718 6.867 2.718 5.974 0 10.834-5.36 10.834-11.96S71.77 0 65.8 0zm0 21.922c-4.87 0-8.834-4.468-8.834-9.96S60.926 2 65.797 2c4.87 0 8.834 4.468 8.834 9.96s-3.96 9.962-8.83 9.962zm-10.183 17.43c-.603-.84-1.662-1.5-2.743-1.82l-1.646 5.89c-.518 1.857-2.248 3.554-4.115 4.036l-14.58 3.76c-.69.107-1.19.15-1.67.15-.13 0-.24-.01-.36-.016v48.752c0 2.757 2.25 5 5 5h.36c2.76 0 5-2.243 5-5V73.938h2.13v26.166c0 2.757 2.25 5 5 5h.35c2.76 0 5-2.243 5-5v-29.79h.32c1.45 0 3.14-.99 3.858-2.25l6.94-12.325c.73-1.29.62-3.24-.24-4.45l-8.58-11.94zM56.67 55.54l-3.347 5.45V48.58l3.28 4.708c.403.578.435 1.65.066 2.25z" fill="currentColor"/>
</svg>
