<svg viewBox="0 0 500 500" xmlns="http://www.w3.org/2000/svg" fill-rule="evenodd" clip-rule="evenodd" stroke-linejoin="round" stroke-miterlimit="1.414">
  <circle cx="250" cy="250" r="250" fill="currentColor"/>
  <path d="M349.965 307.862c.423 3.25-.567 6.08-2.97 8.483l-28.208 27.995c-1.272 1.414-2.934 2.616-4.983 3.605-2.05.99-4.066 1.627-6.044 1.91-.142 0-.567.035-1.274.106-.706.08-1.625.11-2.757.11-2.69 0-7.04-.46-13.05-1.38-6.01-.91-13.37-3.18-22.06-6.78-8.7-3.6-18.56-9.01-29.59-16.22-11.03-7.21-22.77-17.11-35.21-29.69-9.9-9.75-18.1-19.09-24.61-27.99-6.504-8.906-11.734-17.142-15.694-24.71-3.96-7.56-6.93-14.42-8.907-20.57-1.98-6.15-3.325-11.453-4.03-15.907-.71-4.454-.99-7.953-.85-10.5.14-2.544.212-3.96.212-4.24.28-1.98.916-3.995 1.91-6.046.986-2.05 2.19-3.71 3.602-4.982l28.21-28.204c1.98-1.98 4.24-2.97 6.79-2.97 1.832 0 3.46.53 4.872 1.59s2.613 2.37 3.602 3.927l22.693 43.055c1.27 2.26 1.626 4.737 1.06 7.423-.565 2.69-1.766 4.95-3.605 6.79l-10.392 10.39c-.28.286-.53.744-.74 1.38-.21.637-.32 1.17-.32 1.59.57 2.97 1.84 6.364 3.82 10.18 1.7 3.395 4.316 7.53 7.85 12.41 3.536 4.876 8.555 10.5 15.06 16.86 6.36 6.505 12.017 11.56 16.967 15.165 4.946 3.603 9.082 6.255 12.405 7.95 3.32 1.7 5.87 2.724 7.634 3.078l2.65.53c.282 0 .742-.106 1.38-.32.635-.21 1.095-.456 1.38-.74l12.086-12.3c2.548-2.26 5.516-3.393 8.908-3.393 2.407 0 4.316.425 5.73 1.27h.21l40.93 24.18c2.97 1.84 4.738 4.17 5.305 7z" fill="#fff" fill-rule="nonzero"/>
</svg>
