<svg viewBox="0 0 500 500" xmlns="http://www.w3.org/2000/svg" fill-rule="evenodd" clip-rule="evenodd" stroke-linejoin="round" stroke-miterlimit="1.414">
  <circle cx="250" cy="250" r="250" fill="currentColor"/>
  <clipPath id="a">
    <path d="M182.796 138.528h134.408V362.54H182.796z"/>
  </clipPath>
  <g clip-path="url(#a)" fill="#fff" fill-rule="nonzero">
    <path d="M312.993 250.768l-27.01-15.59c-1.74-.99-3.827-3.65-4.388-5.575l-8.366-28.456c-.21-.71-.53-1.353-.92-1.914-1.22-2.23-3.57-3.758-6.28-3.758l-35.7 1.54c-1.57.07-3.03.667-4.22 1.647-.25.152-.49.29-.71.454l-24.26 18.716c-2.82 2.156-4.38 6.556-3.58 9.997l9.6 41.35c.81 3.44 4.11 6.04 7.68 6.04.24 0 .49-.01.72-.04l3.592-.35c1.91-.2 3.65-1.17 4.75-2.69 1.105-1.51 1.5-3.45 1.093-5.35l-6.824-31.91c-.363-1.68.548-4.156 1.9-5.208l4.33-3.324 2.218 51.245c0 .05.027.11.027.154l-9.86 21.885c-1.245 2.757-4.36 6.57-6.813 8.33l-23.12 16.656c-3.73 2.683-5.13 8.04-3.207 12.214l3.16 6.835c1.26 2.72 3.79 4.413 6.604 4.413 1.61 0 3.194-.54 4.583-1.577l30.535-22.73c3.03-2.275 6.79-6.675 8.54-10.047l15.233-29.358c.13-.23.2-.49.308-.73l1.06-.05 24.95 68.79c1.76 4.85 6.466 8.112 11.69 8.112 1.25 0 2.475-.185 3.655-.558l1.54-.49c3.05-.97 5.498-3.07 6.9-5.906 1.4-2.832 1.566-6.052.48-9.062l-26.273-72.43c-.116-.326-.28-.642-.43-.956l-.842-19.44 28.96 15.05c1.027.525 2.17.803 3.327.803 2.68 0 5.135-1.443 6.407-3.776l1.714-3.173c1.88-3.44.64-7.84-2.756-9.8zm-68.758-60.448c.386 0 .76-.012 1.144-.024 6.9-.305 13.28-3.28 17.95-8.378 4.68-5.1 7.08-11.703 6.79-18.62-.62-14.26-12.54-25.364-27-24.746-6.91.302-13.28 3.277-17.96 8.375-4.68 5.1-7.09 11.703-6.78 18.61.59 13.896 11.96 24.783 25.84 24.783z"/>
  </g>
</svg>
