<svg xmlns="http://www.w3.org/2000/svg" viewBox="0 0 512 512">
  <g fill="#9AD14B">
    <path d="M285.017 64.165c12.558 12.57 20.334 29.922 20.334 49.097-38.35 0-69.43-31.08-69.43-69.43 19.17 0 36.53 7.775 49.1 20.333zm69.273 71.76c0 27.025-21.915 48.94-48.94 48.94 0-13.51 5.47-25.743 14.334-34.606 8.85-8.858 21.083-14.34 34.607-14.34zm-48.938-22.663c0-27.81 11.266-52.985 29.5-71.206 18.22-18.22 43.396-29.5 71.205-29.5 0 55.618-45.088 100.706-100.705 100.706z"/>
    <path d="M296.295 104.207h18.112v118.455h-18.112z"/>
  </g>
  <path d="M440.87 342.807L261.636 456.77c-172.27-28.175-66.348-186.836-66.348-186.836 24.632-34.124 64.757-56.33 110.062-56.33 72.763 0 132.136 57.272 135.517 129.203z" fill="#B27214"/>
  <g fill="#995C0D">
    <path d="M302.52 335.447s12.6 40.335 63.34 48.83c50.738 8.495-94.162 62.833-94.162 62.833L149.74 416.923l54.338-118.335"/>
    <path d="M215.09 367.607c3.435-73.07 55.348-133.437 124.3-149.685-10.88-2.81-22.283-4.318-34.04-4.318-72.763 0-132.135 57.272-135.516 129.202l85.986 47.54c1.183.652 2.394 1.244 3.625 1.782l-44.354-24.52z"/>
  </g>
  <path d="M498.008 379.744l-145.48 91.95c-14.622 9.238-32.082 12.897-49.192 10.313l-171.827-25.96c-8.84-1.33-17.878.65-25.34 5.566l-57.537 37.83L16.18 419.4 0 379.503l34.172-21.035c12.34-7.595 23.74-16.53 34.015-26.625 10.264-10.095 19.392-21.35 27.205-33.544 13.705-21.46 37.47-34.66 62.923-34.19 5.796.11 11.592.724 17.34 1.883l19.634 3.935 99.77 19.996c12.4 2.487 20.72 13.38 20.72 25.273 0 2.765-.448 5.59-1.4 8.38-4.08 11.882-16.12 19.09-28.52 17.074l-62.648-10.18c-1.268-.203-2.524-.3-3.767-.3-11.82 0-22.085 9.02-23.184 21.216-1.1 12.122 7.318 23.062 19.32 25.09l110.63 18.74c9.83 1.667 19.938-.06 28.668-4.877l85.986-47.54 26.59-14.707c4.586-2.535 9.56-3.742 14.49-3.742 9.936 0 19.632 4.94 25.33 13.875 8.948 14.016 4.794 32.636-9.273 41.51z" fill="#FFD3AE"/>
  <path d="M175.654 265.998s-38.33 13.858-47.91 53.724c-3.174 13.2-10.62 24.98-21.534 33.055l-90.03 66.62L0 379.504l34.172-21.035c12.34-7.6 23.74-16.53 34.015-26.63 10.263-10.09 19.393-21.35 27.205-33.54 13.705-21.46 37.47-34.658 62.923-34.187 5.796.108 11.592.724 17.34 1.883z" fill="#E5B48F"/>
</svg>
