<svg xmlns="http://www.w3.org/2000/svg" width="780" height="569.9" viewBox="0 0 780 569.9"><style>.st0{fill-rule:evenodd;clip-rule:evenodd;fill:#636870}.st1{stroke-width:3.0783;stroke-dasharray:0,9.2348}.st1,.st2,.st3{fill:none;stroke:#636870;stroke-linecap:round;stroke-miterlimit:10}.st2{stroke-width:3.2835;stroke-dasharray:0,9.8506}.st3{stroke-width:3.2888;stroke-dasharray:0,9.8665}</style><ellipse class="st0" cx="226.7" cy="333" rx="7.3" ry="7"/><circle class="st0" cx="77.1" cy="564.7" r="5.1"/><circle class="st0" cx="7.4" cy="408.7" r="7.4"/><path class="st1" d="M226.7 333L7.4 408.7l71.4 154"/><circle class="st0" cx="773.2" cy="328" r="6.8"/><circle class="st0" cx="658.5" cy="471.5" r="5.6"/><circle class="st0" cx="676.7" cy="322.3" r="5.3"/><circle class="st0" cx="724.3" cy="228" r="3.6"/><path class="st2" d="M658.5 471.5l18.2-149.2 47.6-94.3 48.9 100-96.5-5.7"/><circle class="st0" cx="467.7" cy="343.5" r="4.4"/><path class="st3" d="M237.8 6.3l80.2 5.5L378.3 35l8.7 159.5 80.7 149"/><circle class="st0" cx="387" cy="194.5" r="5.1"/><circle class="st0" cx="378.3" cy="35" r="8.7"/><circle class="st0" cx="318" cy="11.8" r="4.2"/><circle class="st0" cx="237.8" cy="6.3" r="6.3"/></svg>